P3
4 4
255
5 5 5

5 5 5

5 5 5

5 5 5

5 5 5

5 5 5

0 242 0

5 5 5

5 5 5

97 150 0

5 5 5

0 0 247

5 5 5

60 150 0

5 5 5

0 0 210

